<?xml version="1.0" encoding="UTF-8"?><!DOCTYPE svg PUBLIC "-//W3C//DTD SVG 1.1//EN" "http://www.w3.org/Graphics/SVG/1.1/DTD/svg11.dtd"><svg xmlns="http://www.w3.org/2000/svg" xmlns:xlink="http://www.w3.org/1999/xlink"><symbol id="clean" viewBox="0 0 512 512"><path d="M256 512C114.833 512 0 397.156 0 256S114.833 0 256 0s256 114.844 256 256-114.833 256-256 256zm0-490.667C126.604 21.333 21.333 126.604 21.333 256S126.604 490.667 256 490.667 490.667 385.396 490.667 256 385.396 21.333 256 21.333z" fill="#303c42"/><path d="M256 0C114.833 0 0 114.844 0 256s114.833 256 256 256 256-114.844 256-256S397.167 0 256 0zm0 490.667C126.604 490.667 21.333 385.396 21.333 256S126.604 21.333 256 21.333 490.667 126.604 490.667 256 385.396 490.667 256 490.667z"/></symbol><symbol id="comment" viewBox="0 0 510 510"><path d="M510 51c0-28.05-22.95-51-51-51H51C22.95 0 0 22.95 0 51v306c0 28.05 22.95 51 51 51h357l102 102V51zM408 306H102v-51h306v51zm0-76.5H102v-51h306v51zm0-76.5H102v-51h306v51z"/></symbol><symbol id="heart" viewBox="0 0 437.775 437.774"><path d="M316.722 29.761c66.852 0 121.053 54.202 121.053 121.041 0 110.478-218.893 257.212-218.893 257.212S0 266.569 0 150.801c0-83.217 54.202-121.04 121.041-121.04 40.262 0 75.827 19.745 97.841 49.976 22.017-30.231 57.588-49.976 97.84-49.976z"/></symbol><symbol id="right" viewBox="0 0 33 8"><path d="M24.77 3H0v2h24.77v3L33 4l-8.23-4v3z"/></symbol><symbol id="store" viewBox="0 0 512 512"><path d="M510.416 168.959l-46.701-93.403C461.793 33.563 427.189 0 384.533 0H127.451C85.525 0 50.334 32.944 48.289 75.547L1.584 168.959A14.991 14.991 0 0 0 0 175.667v64.267c0 8.284 6.716 15 15 15h33.2V497c0 8.284 6.716 15 15 15h385.6c8.284 0 15-6.716 15-15V254.934H497c8.284 0 15-6.716 15-15v-64.267c0-2.329-.542-4.625-1.584-6.708zm-70.887-74.692l33.2 66.4h-60.97l-19.92-66.4zM127.45 30h257.083c29.911 0 43.433 23.199 46.954 34.267H80.562C89.658 35.926 115.92 30 127.45 30zM319.2 190.667h66.4v34.267h-66.4zm-1.425-30l-6.641-66.4h49.385l19.92 66.4zm-28.575 30v34.267h-66.4v-34.267zm-64.825-30l6.641-66.4h49.969l6.641 66.4zm-92.814 0l19.92-66.4h49.385l-6.641 66.4zm61.239 30v34.267h-66.4v-34.267zm-120.329-96.4h47.689l-19.92 66.4H39.27zM30 224.933v-34.267h66.4v34.267zM144.6 482H78.2v-34.267h66.4zm96.4 0h-66.4V319.2H241zm96.4 0H271V319.2h66.4zm96.4 0h-66.4v-34.267h66.4zm0-64.267h-66.4V304.2c0-8.284-6.716-15-15-15H159.6c-8.284 0-15 6.716-15 15v113.533H78.2v-162.8h355.6zm48.2-192.8h-66.4v-34.267H482z"/></symbol></svg>